<svg xmlns="http://www.w3.org/2000/svg" viewBox="0 0 512 512">
  <defs>
    <linearGradient id="bg" x1="0" y1="0" x2="1" y2="1">
      <stop offset="0%" stop-color="#dc2626"/>
      <stop offset="100%" stop-color="#111827"/>
    </linearGradient>
  </defs>
  <rect width="512" height="512" rx="112" fill="url(#bg)"/>
  <g fill="#fff">
    <path d="M256 96c-17.7 0-32 14.3-32 32v10.4C170.7 150.7 136 197.2 136 252v53.3l-19.3 38.6c-3.1 6.2-2.8 13.5.8 19.4s10 9.7 17 9.7h243c7 0 13.4-3.8 17-9.7s3.9-13.2.8-19.4L376 305.3V252c0-54.8-34.7-101.3-88-113.6V128c0-17.7-14.3-32-32-32z"/>
    <path d="M224 416c0 17.7 14.3 32 32 32s32-14.3 32-32H224z"/>
    <circle cx="400" cy="128" r="56" fill="#fbbf24"/>
    <text x="400" y="152" text-anchor="middle" font-family="-apple-system, system-ui, sans-serif" font-size="72" font-weight="900" fill="#111827">!</text>
  </g>
</svg>
